<?xml version="1.0" standalone="no"?>
<!DOCTYPE svg PUBLIC "-//W3C//DTD SVG 20010904//EN"
 "http://www.w3.org/TR/2001/REC-SVG-20010904/DTD/svg10.dtd">
<svg version="1.0" xmlns="http://www.w3.org/2000/svg"
 width="1711.000000pt" height="1711.000000pt" viewBox="0 0 1711.000000 1711.000000"
 preserveAspectRatio="xMidYMid meet">
<metadata>
Created by potrace 1.11, written by Peter Selinger 2001-2013
</metadata>
<g transform="translate(0.000000,1711.000000) scale(0.100000,-0.100000)"
fill="#000000" stroke="none">
<path d="M8388 16215 c-2 -2 -66 -6 -143 -10 -77 -4 -156 -8 -175 -10 -19 -2
-66 -6 -105 -9 -95 -8 -229 -23 -275 -31 -14 -2 -47 -7 -75 -10 -66 -8 -108
-14 -175 -25 -30 -5 -71 -12 -90 -15 -76 -12 -390 -77 -465 -97 -44 -11 -91
-22 -105 -24 -55 -10 -444 -126 -585 -175 -152 -51 -382 -138 -439 -164 -17
-7 -60 -26 -96 -40 -439 -181 -981 -483 -1420 -793 -178 -126 -498 -376 -596
-467 -6 -5 -46 -41 -90 -80 -85 -75 -437 -424 -519 -515 -28 -30 -80 -89 -115
-130 -36 -41 -73 -83 -83 -95 -39 -42 -246 -304 -313 -395 -593 -801 -1038
-1747 -1274 -2707 -55 -221 -110 -493 -135 -668 -4 -22 -8 -51 -10 -65 -2 -14
-7 -47 -11 -75 -3 -27 -8 -59 -10 -70 -2 -10 -6 -49 -10 -85 -3 -36 -7 -76 -9
-90 -2 -14 -7 -59 -10 -100 -3 -41 -8 -97 -10 -125 -25 -290 -25 -840 0 -1130
2 -27 7 -82 10 -120 3 -39 8 -86 10 -105 3 -19 7 -57 10 -85 5 -46 11 -92 20
-155 2 -14 7 -45 10 -70 9 -67 14 -97 30 -185 8 -44 17 -93 20 -110 22 -124
61 -300 105 -475 22 -85 51 -193 65 -240 14 -47 28 -92 30 -100 3 -8 11 -37
19 -65 20 -69 104 -313 122 -352 8 -17 14 -34 14 -38 0 -3 18 -54 41 -111 45
-115 40 -112 116 -78 17 8 98 41 180 75 81 33 164 67 184 75 l36 15 -44 112
c-104 262 -264 780 -299 962 -2 11 -15 71 -29 133 -13 62 -31 152 -40 200 -8
48 -17 98 -20 112 -7 41 -43 291 -49 340 -3 25 -8 72 -11 105 -3 33 -8 78 -10
100 -4 39 -10 118 -21 295 -18 305 0 824 41 1163 19 156 25 197 41 292 8 50
17 104 20 120 6 37 21 121 29 155 3 14 7 37 10 52 3 16 12 58 21 95 9 38 17
75 19 83 82 367 233 824 403 1215 108 249 352 721 433 837 11 14 19 29 19 33
0 11 224 347 318 477 78 107 247 323 317 406 11 13 27 32 35 41 146 173 369
404 575 596 94 88 150 137 305 269 45 38 204 162 275 214 39 28 76 57 84 64
19 16 395 266 457 303 27 16 74 44 104 61 30 17 73 41 95 54 131 76 397 211
590 300 239 110 663 264 963 350 209 60 597 149 719 166 27 3 50 7 53 9 3 2
30 6 60 10 30 4 57 8 60 10 3 2 34 6 70 10 36 4 72 8 80 10 35 6 165 21 265
30 221 20 440 29 680 28 196 0 418 -8 523 -18 28 -3 78 -7 110 -10 65 -7 133
-14 177 -20 17 -2 57 -7 90 -10 33 -3 67 -8 75 -10 8 -2 35 -7 60 -10 74 -10
157 -24 320 -56 200 -40 189 -37 210 -44 10 -3 27 -8 37 -10 204 -42 568 -152
835 -251 550 -204 1051 -463 1547 -801 84 -58 157 -101 161 -96 18 17 290 396
290 402 -2 18 -483 333 -675 441 -169 95 -240 133 -385 205 -636 319 -1282
537 -1980 669 -69 14 -143 27 -165 30 -22 4 -65 11 -95 16 -56 9 -94 15 -185
25 -27 4 -61 8 -75 10 -14 3 -57 7 -95 10 -39 3 -83 8 -100 10 -16 2 -64 6
-105 9 -41 3 -113 8 -160 12 -81 6 -707 14 -712 9z"/>
<path d="M14694 16200 c-279 -62 -494 -228 -614 -475 -69 -142 -84 -203 -84
-365 -1 -132 6 -197 25 -247 13 -34 11 -43 -7 -43 -23 0 -156 -63 -208 -100
-105 -71 -198 -183 -254 -301 -69 -146 -66 -99 -70 -987 -2 -531 1 -815 8
-840 21 -81 102 -160 179 -177 19 -4 98 -7 176 -7 l143 -1 0 -787 c0 -786 0
-787 21 -836 29 -64 72 -108 133 -134 49 -21 59 -21 737 -22 672 0 689 0 734
20 26 11 64 39 85 60 75 76 72 42 72 918 l0 782 148 0 c81 1 157 3 169 6 38 8
82 35 121 75 73 73 71 50 70 910 -2 885 -1 879 -86 1047 -83 164 -234 298
-407 360 -27 9 -51 19 -53 20 -2 1 5 30 14 65 25 94 27 276 4 383 -72 329
-320 581 -656 667 -118 30 -287 33 -400 9z m282 -506 c82 -20 184 -93 228
-164 39 -61 59 -144 52 -212 -7 -77 -51 -172 -101 -218 -103 -95 -123 -120
-140 -170 -32 -97 -4 -204 71 -270 65 -57 91 -63 289 -65 114 -1 196 -7 223
-15 57 -18 120 -73 145 -129 21 -45 21 -60 23 -663 2 -466 0 -618 -9 -619 -7
0 -79 -1 -162 -3 -132 -2 -155 -4 -190 -24 -55 -30 -77 -50 -111 -102 l-29
-45 -3 -802 c-1 -442 -6 -803 -10 -804 -46 -4 -744 0 -749 4 -3 4 -6 360 -6
792 l0 786 -22 47 c-23 49 -73 100 -128 129 -25 13 -62 18 -177 19 -80 2 -153
3 -162 3 -17 1 -18 37 -18 611 l0 609 24 54 c27 61 63 99 123 128 37 18 64 20
235 22 180 2 196 4 238 26 85 44 135 114 144 203 9 86 -35 187 -101 233 -48
34 -93 88 -121 145 -23 47 -27 67 -27 145 0 79 4 97 29 149 80 162 260 244
442 200z"/>
<path d="M7924 13685 c-75 -17 -127 -49 -181 -110 -115 -128 -113 -319 5 -444
44 -47 136 -101 173 -101 12 0 19 -18 29 -77 8 -43 14 -82 15 -88 2 -5 17 -93
34 -195 18 -102 41 -232 52 -290 23 -127 21 -117 64 -370 34 -192 58 -332 69
-390 3 -14 14 -79 26 -145 11 -66 22 -133 25 -150 3 -16 12 -66 20 -110 8 -44
17 -96 21 -115 9 -56 21 -125 48 -280 14 -80 26 -150 26 -157 0 -6 -24 -17
-52 -23 -87 -21 -247 -81 -378 -143 -51 -24 -197 -111 -260 -155 -138 -97
-280 -224 -387 -346 -48 -56 -52 -59 -71 -45 -12 8 -111 82 -221 164 -145 108
-199 154 -194 165 46 113 63 220 50 320 -20 162 -103 305 -232 403 -326 246
-790 104 -926 -283 -20 -55 -23 -85 -23 -190 0 -105 3 -135 23 -190 90 -255
320 -415 583 -406 128 5 227 38 331 112 26 19 50 34 53 34 7 0 400 -294 427
-319 17 -16 17 -19 -8 -55 -41 -60 -151 -293 -180 -381 -15 -44 -30 -87 -33
-95 -3 -8 -6 -19 -7 -25 -2 -5 -13 -48 -24 -95 -12 -47 -24 -104 -27 -126 -3
-23 -7 -53 -10 -65 -12 -61 -18 -177 -17 -316 l2 -153 -32 -1 c-18 0 -41 -2
-52 -3 -11 -2 -56 -6 -100 -10 -44 -4 -98 -9 -120 -11 -22 -2 -65 -7 -95 -9
-30 -3 -77 -8 -105 -11 -27 -2 -79 -7 -115 -10 -92 -8 -169 -15 -210 -20 -19
-2 -71 -7 -115 -11 -44 -4 -91 -8 -105 -10 -14 -1 -54 -5 -90 -8 -36 -3 -85
-8 -110 -11 -25 -2 -72 -7 -105 -10 -33 -3 -85 -8 -115 -11 -81 -7 -126 -11
-215 -18 -44 -4 -91 -9 -105 -11 -14 -2 -59 -7 -100 -10 -41 -4 -87 -8 -101
-11 -24 -3 -28 1 -39 40 -29 105 -142 260 -237 325 -110 75 -237 114 -368 113
-99 -2 -115 -4 -189 -28 -200 -66 -343 -207 -412 -409 -51 -150 -34 -353 43
-493 91 -166 244 -281 428 -323 71 -16 213 -13 287 7 229 59 400 231 459 462
10 41 20 76 22 78 1 1 34 5 72 8 39 4 90 9 115 11 25 3 73 7 106 10 34 3 79 7
100 9 22 3 73 8 114 11 41 3 89 8 105 10 17 2 66 7 110 10 44 4 89 9 100 10
11 2 56 6 100 10 44 4 94 8 110 10 17 2 68 7 115 10 47 3 96 8 110 10 14 2 57
6 95 10 102 8 176 15 210 20 17 2 67 7 110 10 44 4 94 8 110 10 54 6 189 18
218 19 28 1 29 -1 58 -111 66 -258 183 -504 345 -724 l33 -46 -282 -206 c-155
-114 -291 -213 -302 -221 -11 -8 -177 -130 -369 -270 l-349 -255 -45 39 c-127
112 -327 103 -451 -21 -93 -93 -121 -235 -72 -361 38 -98 143 -185 245 -204
185 -34 373 97 394 273 3 25 13 49 26 61 18 16 341 253 834 613 79 57 217 157
305 222 89 65 174 127 188 137 30 22 24 25 119 -64 82 -77 218 -177 336 -249
l62 -37 -48 -127 c-53 -140 -283 -764 -335 -908 -31 -84 -58 -159 -255 -690
-42 -115 -117 -319 -166 -452 l-89 -243 -35 -6 c-57 -10 -130 -56 -166 -103
-89 -116 -76 -271 30 -373 110 -106 284 -102 392 9 98 101 105 249 17 369
l-23 31 155 424 c86 233 160 433 164 444 5 11 71 189 146 395 75 206 147 402
160 435 13 33 42 112 65 175 23 63 54 149 70 190 16 41 49 131 74 199 24 67
46 125 48 127 2 2 57 -15 123 -37 317 -108 618 -137 946 -94 l36 5 22 -143
c12 -78 31 -194 41 -257 11 -63 22 -132 26 -154 3 -21 8 -48 10 -60 2 -11 7
-41 10 -66 3 -25 8 -54 10 -65 2 -11 7 -40 10 -65 3 -25 8 -47 9 -50 2 -3 7
-33 10 -65 4 -33 9 -62 10 -65 2 -3 6 -30 10 -60 4 -30 8 -57 10 -60 2 -3 6
-28 10 -57 l6 -52 -53 -34 c-60 -38 -141 -123 -168 -176 -100 -198 -64 -428
90 -579 134 -131 339 -173 513 -105 264 103 383 413 257 668 -68 139 -209 241
-360 261 -25 3 -48 9 -52 12 -3 4 -9 29 -12 55 -4 26 -11 69 -16 95 -4 26 -11
67 -15 92 -3 25 -8 56 -10 70 -3 14 -7 41 -10 60 -3 19 -8 46 -10 60 -2 14
-20 124 -40 245 -19 121 -42 261 -51 310 -16 97 -18 104 -28 180 l-6 50 136
44 c169 55 394 166 529 263 123 89 294 244 401 365 l29 33 551 -350 552 -351
-20 -62 c-31 -93 -34 -270 -8 -366 45 -159 134 -287 265 -380 69 -49 136 -78
245 -109 34 -9 219 -10 265 -1 108 20 248 90 326 161 217 199 281 539 149 798
-69 135 -176 241 -311 305 -249 118 -538 75 -744 -112 l-46 -42 -105 67 c-57
37 -115 74 -129 82 -93 57 -315 197 -340 214 -16 12 -38 26 -47 31 -10 6 -115
72 -234 148 -119 77 -223 141 -229 144 -9 3 -1 25 26 69 50 82 106 197 146
299 34 87 67 184 68 200 0 6 9 9 20 9 23 -2 120 -14 144 -19 9 -2 44 -7 76
-11 33 -4 62 -9 65 -9 3 -1 32 -5 65 -9 33 -5 69 -10 80 -12 11 -3 54 -9 95
-15 41 -5 136 -19 210 -29 74 -11 155 -22 180 -25 25 -3 52 -7 60 -10 14 -4
99 -15 145 -20 11 -1 34 -4 50 -8 17 -4 53 -9 80 -12 28 -3 57 -7 65 -10 8 -2
40 -6 71 -10 31 -3 65 -7 75 -9 11 -2 42 -7 69 -10 53 -7 100 -14 150 -22 56
-9 90 -14 125 -18 129 -18 383 -56 385 -58 1 -2 9 -24 19 -49 67 -183 287
-280 476 -209 85 32 167 108 206 192 26 56 29 74 29 158 0 82 -4 103 -27 152
-129 276 -511 294 -665 31 -13 -24 -29 -43 -34 -43 -5 0 -71 9 -146 20 -76 10
-154 21 -173 24 -19 2 -51 7 -70 10 -19 3 -84 13 -145 21 -60 9 -121 18 -135
20 -14 2 -45 6 -70 10 -75 11 -93 14 -140 20 -55 8 -97 14 -130 20 -14 2 -50
7 -80 10 -30 3 -62 8 -70 10 -8 2 -39 7 -69 10 -30 4 -63 9 -75 11 -20 4 -60
9 -138 20 -24 3 -50 7 -58 9 -8 2 -44 7 -80 10 -36 4 -68 9 -71 10 -3 2 -27 6
-55 9 -27 4 -60 8 -74 11 -14 3 -41 7 -60 9 -32 4 -232 32 -289 41 -13 2 -26
6 -28 9 -3 2 0 45 7 95 14 110 17 273 7 401 -9 122 -17 171 -52 331 -23 107
-97 303 -165 440 -43 84 -47 98 -32 103 9 3 33 15 52 27 19 11 139 80 265 151
127 72 241 138 255 147 14 8 39 23 56 32 17 10 156 89 310 177 153 88 295 169
314 180 19 11 72 41 118 67 l82 46 52 -46 c173 -155 446 -175 645 -46 112 73
197 188 229 311 25 92 22 227 -6 310 -144 433 -724 508 -972 126 -73 -113
-102 -274 -73 -398 7 -32 10 -60 7 -62 -71 -43 -1466 -836 -1472 -836 -4 0
-20 17 -36 38 -179 235 -454 464 -712 592 l-61 30 35 98 c32 87 161 445 279
777 123 345 164 458 167 460 2 2 17 5 33 7 76 10 156 71 195 148 62 122 19
281 -97 356 -74 48 -138 59 -222 37 -127 -32 -209 -138 -209 -268 1 -70 11
-105 50 -162 15 -23 28 -46 28 -52 0 -6 -47 -142 -105 -303 -58 -161 -119
-331 -136 -378 -17 -47 -36 -101 -44 -120 -7 -19 -51 -141 -97 -270 -72 -202
-86 -235 -103 -234 -11 1 -64 13 -119 28 -54 14 -108 28 -120 30 -216 40 -411
50 -612 32 l-80 -8 -14 88 c-8 49 -15 94 -16 99 -1 6 -5 24 -8 40 -3 17 -8 40
-10 51 -2 12 -7 39 -10 60 -7 41 -17 102 -41 239 -3 17 -10 53 -15 80 -5 28
-12 66 -15 85 -3 19 -10 62 -16 95 -6 33 -13 74 -15 90 -3 17 -9 50 -14 75 -5
25 -12 61 -15 80 -3 19 -14 85 -25 145 -11 61 -22 126 -25 145 -3 19 -8 42
-10 50 -2 8 -7 35 -10 60 -3 25 -15 92 -25 150 -11 58 -22 121 -25 140 -3 19
-8 42 -10 50 -2 8 -6 33 -10 55 -6 41 -32 193 -39 231 -2 12 -7 37 -10 55 -3
19 -8 45 -11 59 -3 14 -7 42 -10 63 -3 21 -8 49 -11 63 -4 14 -2 24 4 24 21 0
101 90 129 142 24 46 27 65 28 143 0 78 -4 97 -27 146 -69 140 -227 218 -374
184z"/>
<path d="M15840 10538 c-80 -22 -179 -48 -220 -59 -41 -11 -80 -22 -87 -24 -8
-3 -6 -25 9 -82 11 -43 21 -85 23 -93 2 -8 8 -33 13 -55 6 -22 13 -51 16 -65
3 -14 7 -36 10 -50 3 -14 8 -36 11 -50 6 -26 12 -57 20 -100 3 -14 7 -36 10
-50 12 -60 41 -233 49 -295 3 -22 12 -92 20 -155 8 -63 18 -151 21 -195 4 -44
8 -91 10 -105 25 -167 25 -868 0 -1120 -2 -25 -7 -74 -10 -110 -3 -36 -8 -76
-10 -90 -2 -14 -6 -56 -10 -95 -4 -38 -9 -79 -11 -90 -2 -11 -7 -42 -9 -70 -3
-27 -8 -57 -10 -65 -3 -8 -7 -31 -9 -50 -7 -50 -13 -88 -42 -235 -85 -443
-261 -1027 -409 -1360 -7 -16 -34 -79 -60 -140 -44 -103 -225 -472 -275 -560
-246 -434 -498 -808 -751 -1110 -511 -610 -1036 -1072 -1689 -1486 -302 -191
-597 -347 -995 -525 -129 -57 -633 -243 -705 -259 -8 -2 -71 -20 -140 -40 -69
-20 -132 -38 -140 -40 -8 -2 -60 -15 -115 -29 -55 -13 -111 -27 -125 -30 -14
-2 -47 -10 -75 -16 -27 -6 -61 -14 -75 -16 -14 -2 -45 -9 -70 -14 -25 -5 -58
-12 -75 -15 -16 -3 -68 -11 -115 -19 -47 -8 -105 -18 -130 -21 -25 -3 -56 -8
-70 -10 -14 -3 -47 -7 -75 -10 -27 -3 -59 -7 -71 -9 -12 -2 -57 -7 -100 -11
-43 -4 -89 -8 -102 -10 -12 -2 -73 -7 -135 -11 -61 -3 -128 -8 -147 -10 -45
-4 -654 -4 -700 0 -19 2 -89 7 -155 11 -66 4 -127 9 -136 10 -8 2 -49 6 -90
10 -184 16 -594 82 -784 126 -49 12 -97 22 -105 24 -254 53 -704 197 -1035
330 -239 97 -510 223 -695 325 -40 22 -74 39 -75 38 -1 -2 -57 -102 -124 -223
-109 -200 -119 -221 -104 -233 41 -30 410 -211 648 -317 202 -91 638 -245 914
-325 286 -82 677 -168 936 -205 22 -4 47 -8 55 -10 8 -2 43 -7 78 -10 35 -4
71 -8 80 -10 9 -1 46 -6 82 -10 36 -3 76 -8 90 -10 14 -2 66 -7 115 -10 50 -4
101 -8 115 -10 160 -23 856 -23 1095 -1 17 2 66 6 110 10 44 4 96 9 115 11 19
2 63 7 97 10 34 3 71 8 82 10 11 2 46 6 78 10 32 3 65 8 73 10 8 2 35 7 60 10
25 3 81 12 125 20 44 8 96 17 115 20 19 3 42 8 50 10 8 2 31 7 50 10 127 20
574 135 780 200 467 146 1024 384 1405 599 138 77 244 139 304 176 34 22 65
40 66 40 6 0 345 229 413 279 341 249 616 484 922 791 444 444 812 912 1135
1446 52 86 95 157 95 159 0 1 25 47 56 101 59 104 219 422 271 539 18 39 43
95 56 125 98 219 231 589 326 905 18 63 88 327 96 365 2 8 13 58 25 110 21 96
63 311 74 385 6 36 12 70 22 129 2 11 11 76 19 145 9 69 18 141 20 160 5 30 9
80 21 216 15 184 19 321 19 625 -1 302 -8 528 -20 602 -2 13 -6 59 -10 103 -3
44 -8 94 -10 110 -3 17 -7 50 -9 75 -3 25 -7 61 -10 80 -22 154 -29 198 -32
215 -2 11 -7 38 -9 60 -3 22 -12 74 -20 115 -8 41 -17 86 -19 100 -3 14 -8 36
-11 50 -3 14 -8 39 -11 55 -3 17 -11 55 -19 85 -8 30 -16 66 -19 80 -2 14 -16
73 -31 133 -21 82 -31 107 -44 106 -9 0 -81 -19 -161 -41z"/>
<path d="M3048 6104 c-246 -38 -465 -176 -606 -380 -49 -71 -109 -213 -126
-298 -27 -131 -23 -289 9 -400 8 -27 14 -50 12 -51 -1 -1 -28 -12 -59 -23
-238 -88 -416 -294 -474 -547 -13 -60 -16 -211 -16 -896 l0 -797 26 -53 c30
-58 61 -89 121 -122 35 -18 59 -21 195 -23 85 -2 158 -3 161 -3 3 -1 6 -295 6
-654 0 -358 3 -670 7 -692 17 -88 93 -167 184 -190 34 -8 238 -11 717 -10
l670 1 53 23 c28 13 66 40 83 59 66 75 63 40 65 772 2 366 3 672 3 680 1 13
26 15 159 15 181 1 224 14 285 85 68 79 65 46 63 950 -2 788 -3 817 -23 885
-71 244 -243 436 -461 515 -60 22 -63 25 -57 49 59 222 33 454 -71 650 -174
327 -553 514 -926 455z m216 -509 c108 -15 237 -118 275 -221 53 -140 24 -281
-77 -377 -25 -23 -60 -58 -79 -76 -97 -96 -97 -255 0 -351 72 -70 98 -77 303
-79 98 -1 195 -6 214 -11 62 -17 116 -66 156 -140 17 -33 18 -75 19 -665 1
-346 -3 -635 -7 -641 -6 -8 -57 -12 -149 -12 -144 -1 -161 -3 -216 -28 -44
-20 -111 -99 -124 -148 -8 -28 -11 -251 -11 -703 0 -482 -3 -663 -12 -665 -19
-7 -734 -3 -741 4 -4 3 -6 300 -6 660 0 733 1 724 -67 793 -79 80 -98 86 -291
87 l-151 1 0 636 c0 618 1 637 21 681 25 56 62 95 114 123 36 19 61 22 240 27
127 4 211 11 230 19 128 54 188 193 144 330 -7 21 -47 70 -103 125 -80 80 -94
99 -115 158 -76 220 54 432 294 477 39 7 57 7 139 -4z"/>
</g>
</svg>
